<svg width="48" height="48" viewBox="0 0 48 48" fill="none" xmlns="http://www.w3.org/2000/svg">
<path d="M12.9979 19.9971L2.00564 13.715L24.4979 0.861612V13.4258L12.9979 19.9971Z" fill="#431F5A" stroke="black"/>
<path d="M12.7519 21.0062L12.7519 21.0062L24.5 27.7193V40.2815L13.2481 33.852L1.5 27.1389V14.5758L12.7519 21.0062Z" fill="#722ED1" stroke="black"/>
<path d="M25.499 28.2905L36.499 34.5761V47.1374L25.499 40.8528V28.2905Z" fill="#722ED1" stroke="black"/>
<path d="M37.246 20.1359L25.4979 13.4238V0.861612L48.4979 14.0052V26.5645L37.246 20.1359Z" fill="#722ED1" stroke="black"/>
<path d="M37.245 21.0052L48.4969 14.5757V27.1399L36.997 33.7112L26.0046 27.4291L37.245 21.0052L37.245 21.0052Z" fill="#431F5A" stroke="black"/>
<path d="M25.499 28.2905L35.9912 34.2859L25.499 40.2814V28.2905Z" fill="#431F5A" stroke="black"/>
</svg>
